<?xml version="1.0" encoding="utf-8"?>
<!-- Generator: Adobe Illustrator 27.5.0, SVG Export Plug-In . SVG Version: 6.00 Build 0)  -->
<svg version="1.1" xmlns="http://www.w3.org/2000/svg" xmlns:xlink="http://www.w3.org/1999/xlink" x="0px" y="0px"
	 viewBox="0 0 3710 3710" style="enable-background:new 0 0 3710 3710;" xml:space="preserve">
<g id="Background">
	<g>
		<g>
			<rect style="fill:#FFFFFF;" width="3710" height="3710"/>
		</g>
	</g>
</g>
<g id="Illustration">
	<g>
		<path style="fill:#F4F7FA;" d="M3334.466,1556.993c-72.035-471.505-367.38-1050.783-950.866-1111.405
			c0,0-443.01-53.885-879.72,27.783c-259.188,48.47-486.458,192.756-630.265,400.131
			c-143.809,207.374-191.845,460.239-133.547,701.315c37.864,156.581,63.451,318.636,56.429,479.532
			c-12.221,280.024-5.19,541.407,266.568,708.405c242.648,149.112,548.024,280.622,839.357,303.656
			c197.988,15.654,420.019-9.678,610.842-61.224C3485.74,2742.492,3406.501,2028.498,3334.466,1556.993z"/>
		<g>
			<g>
				<g>
					<defs>
						<path id="SVGID_1_" d="M1879.802,2839.624c59.044-145.912,124.268-370.348,83.004-627.202
							c-47.383-294.939-191.868-363.065-304.153-682.496c-160.284-455.978,76.667-762.432-111.098-911.169
							c-91.566-72.532-242.563-82.783-340.138-22.762c-278.387,171.245-261.224,1000.2,138.478,1350.221
							c180.773,158.305,348.254,152.284,478.57,350.137C1939.614,2471.18,1914.888,2689.892,1879.802,2839.624z"/>
					</defs>
					
						<linearGradient id="SVGID_00000139287072465505446100000017147883142262363574_" gradientUnits="userSpaceOnUse" x1="1178.7186" y1="579.4406" x2="1814.8157" y2="2603.3843">
						<stop  offset="0" style="stop-color:#FFC444"/>
						<stop  offset="0.9964" style="stop-color:#F36F56"/>
					</linearGradient>
					
						<use xlink:href="#SVGID_1_"  style="overflow:visible;fill:url(#SVGID_00000139287072465505446100000017147883142262363574_);"/>
					<clipPath id="SVGID_00000069382774021170533800000005329631582611496106_">
						<use xlink:href="#SVGID_1_"  style="overflow:visible;"/>
					</clipPath>
					<g style="clip-path:url(#SVGID_00000069382774021170533800000005329631582611496106_);">
						<path style="fill:#FFFFFF;" d="M1935.679,2466.076c-11.736-63.863-29.049-127.013-51.459-187.698
							c-51.508-139.469-113.404-218.438-191.766-318.415c-51.112-65.21-109.045-139.122-174.679-243.911
							c-122.798-196.048-160.386-264.542-190.885-372.892c-60.351-214.411-36.234-401.371-16.484-493.73
							c28.014-131.019,80.909-253.928,157.215-365.315l2.98,2.04c-76.038,110.996-128.749,233.472-156.663,364.028
							c-19.679,92.035-43.713,278.335,16.43,491.998c30.374,107.912,67.887,176.251,190.467,371.953
							c65.535,104.627,123.404,178.46,174.462,243.6c78.557,100.226,140.607,179.391,192.31,319.391
							c22.482,60.879,39.852,124.231,51.624,188.297L1935.679,2466.076z"/>
						<path style="fill:#FFFFFF;" d="M1299.437,1191.863l-2.512-1.59c-0.757-0.48-76.397-48.967-140.282-141.583
							c-58.981-85.505-119.774-227.199-74.446-416.649l3.513,0.841c-45.017,188.155,15.343,328.857,73.906,413.757
							c56.944,82.553,123.183,129.75,136.747,138.927c14.349-153.306,119.428-246.147,205.37-297.121
							c93.591-55.512,185.282-74.678,186.197-74.863l0.722,3.537c-0.91,0.188-92.089,19.257-185.167,74.485
							c-85.738,50.874-190.692,143.75-203.794,297.296L1299.437,1191.863z"/>
						<path style="fill:#FFFFFF;" d="M1322.925,1688.266c-79.595,0-190.241-19.315-286.989-105.691l2.405-2.696
							c100.699,89.907,216.666,106.536,296.195,104.638c79.088-1.876,138.756-21.886,148.581-25.373
							c-29.07-154.048,13.075-263.359,53.633-328.013c44.109-70.315,95.986-104.471,96.505-104.808l1.967,3.029
							c-0.514,0.333-51.825,34.148-95.505,103.847c-40.293,64.295-82.155,173.179-52.763,326.78l0.286,1.49l-1.42,0.538
							c-0.633,0.24-64.355,24.062-151.196,26.121C1330.808,1688.219,1326.897,1688.266,1322.925,1688.266z"/>
						<path style="fill:#FFFFFF;" d="M1480.726,1988.681c-64.131,0-146.581-13.353-244.843-56.963l1.465-3.302
							c146.139,64.86,256.969,62.418,324.21,48.94c66.315-13.289,104.417-39.61,110.99-44.441
							c-56.045-159.247,54.286-403.829,55.41-406.286l3.285,1.5c-1.12,2.452-111.423,246.996-54.849,404.821l0.436,1.218
							l-1.013,0.805c-0.387,0.31-39.715,31.08-113.311,45.876C1539.989,1985.376,1512.619,1988.681,1480.726,1988.681z"/>
					</g>
				</g>
			</g>
			<g>
				<g>
					<defs>
						<path id="SVGID_00000125591472273603914470000010330116669378538394_" d="M1962.087,2462.052
							c23.342-99.118,43.439-255.02-28.697-400.529c-125.848-253.853-390.772-190.357-621.443-468.797
							c-186.046-224.573-111.846-384.339-324.32-539.585c-35.565-25.986-223.135-168.435-374.365-100.479
							c-85.22,38.292-121.103,126.298-127.839,142.819c-101.808,249.694,131.336,667.135,458.065,872.925
							c187.719,118.234,252.892,88.138,587.445,233.842C1727.52,2287.865,1872.512,2390.808,1962.087,2462.052z"/>
					</defs>
					
						<linearGradient id="SVGID_00000067197842626062791740000009870904086490523023_" gradientUnits="userSpaceOnUse" x1="2330.3115" y1="6641.4854" x2="2174.9233" y2="5955.9468">
						<stop  offset="0.0036" style="stop-color:#E38DDD"/>
						<stop  offset="1" style="stop-color:#9571F6"/>
					</linearGradient>
					
						<use xlink:href="#SVGID_00000125591472273603914470000010330116669378538394_"  style="overflow:visible;fill:url(#SVGID_00000067197842626062791740000009870904086490523023_);"/>
					<clipPath id="SVGID_00000133492388077476268240000014229130779062556093_">
						<use xlink:href="#SVGID_00000125591472273603914470000010330116669378538394_"  style="overflow:visible;"/>
					</clipPath>
					<g style="clip-path:url(#SVGID_00000133492388077476268240000014229130779062556093_);">
						<path style="fill:#FFFFFF;" d="M1983.266,2584.589c-33.548-241.877-116.748-408.385-247.29-494.896
							c-63.722-42.23-116.242-51.794-171.843-61.919c-60.59-11.034-123.243-22.442-203.319-78.567
							c-77.91-54.605-103.779-103.758-136.531-165.987c-29.157-55.398-65.444-124.342-150.938-218.657
							c-74.948-82.679-130.908-122.801-180.279-158.2c-53.948-38.679-96.559-69.23-143.599-140.342
							c-76.671-115.904-111.09-260.114-102.305-428.627l3.607,0.189c-8.745,167.724,25.475,311.2,101.709,426.446
							c46.674,70.557,89.046,100.936,142.691,139.399c49.52,35.503,105.646,75.745,180.851,158.709
							c85.803,94.653,122.209,163.824,151.461,219.402c32.523,61.796,58.213,110.606,135.406,164.709
							c79.43,55.671,141.688,67.009,201.894,77.973c55.978,10.193,108.85,19.82,173.191,62.46
							c131.443,87.109,215.176,254.463,248.873,497.409L1983.266,2584.589z"/>
						<path style="fill:#FFFFFF;" d="M918.002,1422.322l-2.415-0.089c-184.907-6.836-317.328-85.826-395.855-150.886
							c-85.086-70.494-127.026-140.344-127.439-141.04l3.106-1.844c0.412,0.694,42.1,70.094,126.75,140.195
							c77.74,64.381,208.592,142.488,391.177,149.872c-3.513-14.484-21.939-93.986-26.6-185.82
							c-4.745-93.542,4.237-219.4,73.98-287.769l2.528,2.58c-131.816,129.215-46.705,469.041-45.831,472.457L918.002,1422.322z"/>
						<path style="fill:#FFFFFF;" d="M917.1,1705.434c-117.599,0-283.052-25.434-443.37-136.885l2.061-2.966
							c170.306,118.396,346.492,139.266,464.282,135.914c118.757-3.374,203.661-31.34,215.684-35.501
							c-35.696-177.307,23.077-420.562,23.676-423.005l3.509,0.859c-0.599,2.443-59.514,246.333-23.334,422.963l0.312,1.521
							l-1.457,0.536c-0.885,0.324-89.891,32.568-218.15,36.232C932.812,1705.316,925.054,1705.434,917.1,1705.434z"/>
						<path style="fill:#FFFFFF;" d="M1064.173,2120.984c-33.096,0-67.773-1.444-103.977-4.675l0.323-3.597
							c178.138,15.893,317.954-11.928,403.878-38.069c83.889-25.522,134.027-54.395,143.445-60.062
							c-120.261-171.039-51.012-433.165-50.295-435.801l3.485,0.947c-0.713,2.627-69.924,264.745,50.87,434.339l1.104,1.55
							l-1.606,1.022C1509.564,2017.804,1343.786,2120.984,1064.173,2120.984z"/>
					</g>
				</g>
			</g>
			<g>
				
					<linearGradient id="SVGID_00000116934757691739568160000014230394985477520282_" gradientUnits="userSpaceOnUse" x1="-40.7509" y1="1028.3276" x2="-1510.4418" y2="2235.5754" gradientTransform="matrix(-0.9654 0.2606 0.2606 0.9654 449.6203 931.8228)">
					<stop  offset="0" style="stop-color:#FFC444"/>
					<stop  offset="0.9964" style="stop-color:#F36F56"/>
				</linearGradient>
				<path style="fill:url(#SVGID_00000116934757691739568160000014230394985477520282_);" d="M1971.331,2377.141
					c-53.04-43.829-140.368-107.979-260.159-159.776c-213.068-92.131-316.19-53.231-402.369-151.759
					c-89.206-101.988-20.892-191.893-128.213-306.304c-9.024-9.619-124.457-129.505-238.51-95.469
					c-79.788,23.811-116.06,110.169-133.08,150.688c-66.054,157.26-50.535,404.725,113.04,537.317
					c155.082,125.709,364.929,84.962,431.584,71.561c116.936-23.51,147.171-66.427,265.815-86.845
					C1763.722,2311.724,1889.595,2345.837,1971.331,2377.141z"/>
			</g>
		</g>
		<g>
			<g>
				<g>
					<path style="fill:#97A6B7;" d="M2377.218,2945.889c-40.06-13.287-70-47.286-78.444-89.073l-58.305-288.571l-498.76,17.711
						l-61.383,300.626c-8.597,42.103,25.816,84.342,65.449,99.848l208.67,81.645c38.811,15.186,80.53,21.234,121.995,17.687
						l440.996-37.727c12.892-1.103,23.232-11.236,24.732-24.237c1.5-13.001,10.533-27.598-1.76-31.676L2377.218,2945.889z"/>
					
						<linearGradient id="SVGID_00000053508344920150909140000015821538041476139399_" gradientUnits="userSpaceOnUse" x1="2121.4683" y1="2680.8442" x2="2121.4683" y2="2958.9492">
						<stop  offset="0.494" style="stop-color:#EBEFF2"/>
						<stop  offset="1" style="stop-color:#FFFFFF"/>
					</linearGradient>
					<path style="fill:url(#SVGID_00000053508344920150909140000015821538041476139399_);" d="M2382.154,2928.339
						c-40.019-13.121-69.93-46.692-78.365-87.953l-58.246-284.943l-486.602,17.507l-61.322,296.847
						c-8.588,41.573,14.135,83.262,53.728,98.574l208.461,80.619c38.772,14.995,80.449,20.967,121.872,17.464l440.552-37.252
						c12.878-1.089,23.209-11.095,24.708-23.933c1.499-12.837-6.249-24.954-18.53-28.981L2382.154,2928.339z"/>
				</g>
				<g>
					<g>
						<path style="fill:#97A6B7;" d="M722.561,2760.045c-54.087,3.225-98.336-31.864-98.336-78.234V1010.519
							c0-46.37,44.248-82.179,98.336-79.835l2501.311,108.38c39.709,1.721,71.863,35.2,71.863,74.637v1421.421
							c0,39.438-32.154,73.44-71.863,75.807L722.561,2760.045z"/>
						<path style="fill:#FFFFFF;" d="M745.041,2760.045c-54.087,3.225-98.335-31.864-98.335-78.234V1010.519
							c0-46.37,44.248-82.179,98.335-79.835l2501.311,108.38c39.709,1.721,71.863,35.2,71.863,74.637v1421.421
							c0,39.438-32.154,73.44-71.863,75.807L745.041,2760.045z"/>
						<path style="opacity:0.3;fill:#D8DEE8;" d="M3246.352,1072.516l-2501.311-102.9c-28.915-1.189-52.425,17.916-52.425,42.677
							v1299.824v367.172c0,24.761,23.51,43.483,52.425,41.823l2501.311-143.636c21.284-1.222,38.494-19.363,38.494-40.523v-324.932
							V1112.412C3284.847,1091.253,3267.636,1073.391,3246.352,1072.516z"/>
						<path style="fill:#D8DEE8;" d="M745.041,2579.132c-11.257,0.557-20.425-6.828-20.425-16.458V1013.529
							c0-9.63,9.168-17.104,20.425-16.658l2501.311,99.063c8.302,0.329,15.05,7.316,15.05,15.573V2439.76
							c0,8.257-6.748,15.311-15.05,15.721L745.041,2579.132z"/>
					</g>
					<path style="opacity:0.6;fill:#FFFFFF;" d="M2985.226,2507.48c-210.434-130.17-63.453-500.277-299.776-686.234
						c-238.258-187.479-573.515,42.463-740.41-151.694c-124.268-144.567,21.138-319.125-97.517-455.081
						c-186.078-213.21-662.421,80.025-881.269-130.023c-31.072-29.823-62.428-75.067-80.273-147.657l-140.939-6.107
						c-54.087-2.343-98.336,33.465-98.336,79.835v1671.291c0,46.37,44.248,81.458,98.336,78.234l2501.311-149.116
						c39.709-2.367,71.863-36.37,71.863-75.807v-25.271C3152.128,2566.208,3050.594,2547.916,2985.226,2507.48z"/>
				</g>
			</g>
			<g>
				<polygon style="fill:#AABBCC;" points="2087.417,997.026 1897.152,969.563 1897.152,864.2 2087.417,864.2 				"/>
				<g>
					<circle style="fill:#D8DEE8;" cx="2034.645" cy="676.448" r="253.805"/>
					<circle style="fill:#FFFFFF;" cx="2100.786" cy="678.629" r="154.231"/>
					
						<ellipse transform="matrix(0.7071 -0.7071 0.7071 0.7071 137.3952 1691.8666)" style="fill:#D8DEE8;" cx="2110.961" cy="680.083" rx="107.714" ry="107.714"/>
					
						<ellipse transform="matrix(0.7071 -0.7071 0.7071 0.7071 141.1562 1691.9342)" style="opacity:0.5;fill:#97A6B7;" cx="2112.923" cy="675.577" rx="58.872" ry="58.872"/>
					<circle style="fill:#FFFFFF;" cx="2161.438" cy="637.964" r="31.072"/>
				</g>
				<g>
					<path style="fill:#97A6B7;" d="M2171.769,970.101l-254.882-11.589c-10.9-0.496-19.735,7.218-19.735,17.228v93.099
						c0,22.296,19.679,41.27,43.957,42.38l206.418,9.44c24.298,1.111,43.996-16.071,43.996-38.379v-93.147
						C2191.523,979.118,2182.679,970.597,2171.769,970.101z"/>
					<path style="fill:#97A6B7;" d="M1846.41,958.831c-11.855-0.216-23.199,5.028-30.702,14.209l-3.185,3.897l84.629,6.041
						l26.613-24.153C1921.677,958.729,1886.281,959.556,1846.41,958.831z"/>
				</g>
			</g>
			<g>
				<g>
					<path style="fill:#FFFFFF;" d="M3089.526,1311.715c-0.014-18.32-14.948-33.549-33.397-34.016L942.71,1224.224
						c-24.023-0.608-43.546,15.902-43.546,36.878v1162.576c0,20.993,19.531,37.106,43.564,35.994l2114.193-97.897
						c18.455-0.854,33.372-16.407,33.359-34.74L3089.526,1311.715z"/>
					<path style="fill:#FFFFFF;" d="M1620.731,1133.098c0,16.503-15.794,29.423-34.027,28.855l-651.247-20.245
						c-19.734-0.614-36.292-15.072-36.292-32.291v-2.232c0-17.219,16.031-30.619,35.765-29.931l651.761,22.675
						c18.233,0.635,34.042,14.527,34.042,31.03V1133.098z"/>
					<g>
						<defs>
							<path id="SVGID_00000090276168949674412880000003354630450876225722_" d="M3089.526,1311.715
								c-0.014-18.32-14.948-33.549-33.397-34.016L942.71,1224.224c-24.023-0.608-43.546,15.902-43.546,36.878v1162.576
								c0,20.993,19.531,37.106,43.564,35.994l2114.193-97.897c18.455-0.854,33.372-16.407,33.359-34.74L3089.526,1311.715z"/>
						</defs>
						<clipPath id="SVGID_00000114763520678659036380000015862077386249940653_">
							<use xlink:href="#SVGID_00000090276168949674412880000003354630450876225722_"  style="overflow:visible;"/>
						</clipPath>
						<g style="clip-path:url(#SVGID_00000114763520678659036380000015862077386249940653_);">
							
								<linearGradient id="SVGID_00000144330441328133014170000012048653494877020855_" gradientUnits="userSpaceOnUse" x1="2484.1047" y1="1511.3026" x2="1853.0217" y2="2753.5422">
								<stop  offset="0" style="stop-color:#FF9085"/>
								<stop  offset="1" style="stop-color:#FB6FBB"/>
							</linearGradient>
							<path style="fill:url(#SVGID_00000144330441328133014170000012048653494877020855_);" d="M2086.767,2510.176
								c-435.879,26.123-594.296,88.688-667.098,3.246c-67.558-79.286-11.588-226.997,68.396-312.674
								c124.887-133.778,321.552-144.891,583.173-157.895c238.512-11.856,382.011-18.989,493.554,72.858
								c102.864,84.7,167.924,244.872,104.637,331.995C2610.232,2529.199,2482.019,2486.487,2086.767,2510.176z"/>
							
								<linearGradient id="SVGID_00000078037292834470088320000002439903425431441853_" gradientUnits="userSpaceOnUse" x1="2049.2146" y1="2508.6765" x2="2060.7214" y2="1880.4303">
								<stop  offset="0" style="stop-color:#311944"/>
								<stop  offset="0.5554" style="stop-color:#6F2B60"/>
								<stop  offset="1" style="stop-color:#A03976"/>
							</linearGradient>
							<path style="fill:url(#SVGID_00000078037292834470088320000002439903425431441853_);" d="M1927.915,2045.847l-50.81,13.243
								c-12.503,3.259-18.213,16.769-11.233,26.613c34.703,48.942,125.906,170.764,182.481,183.276
								c58.074,12.844,165.375-146.863,200.754-202.507c6.097-9.589,1.206-21.798-9.964-24.885l-35.838-9.905
								c-29.438-8.136-60.536-10.767-91.56-7.714l-136.543,13.438C1959.273,2038.974,1943.454,2041.797,1927.915,2045.847z"/>
							
								<linearGradient id="SVGID_00000134227164730393434450000010758712595556626595_" gradientUnits="userSpaceOnUse" x1="2060.8887" y1="2237.4463" x2="2065.4434" y2="1889.8029">
								<stop  offset="0" style="stop-color:#FFC444"/>
								<stop  offset="0.9964" style="stop-color:#F36F56"/>
							</linearGradient>
							<path style="fill:url(#SVGID_00000134227164730393434450000010758712595556626595_);" d="M1965.366,1863.367
								c0,0,27.734,184.239-10.543,202.826l108.555,106.878l108.399-132.386c0,0-40.835-27.912-30.128-179.519L1965.366,1863.367z"
								/>
							
								<linearGradient id="SVGID_00000032607764574751409300000003181146703815749255_" gradientUnits="userSpaceOnUse" x1="2027.0438" y1="1849.5198" x2="2064.6321" y2="1506.144">
								<stop  offset="0" style="stop-color:#FFC444"/>
								<stop  offset="0.9964" style="stop-color:#F36F56"/>
							</linearGradient>
							<path style="fill:url(#SVGID_00000032607764574751409300000003181146703815749255_);" d="M1900.663,1598.511
								c-3.971,4.951-55.687,239.441,122.188,261.804c174.049,21.882,181.559-147.868,179.338-219.837
								c-2.221-71.985-81.343-98.706-126.966-104.109C2029.341,1530.936,1914.738,1580.965,1900.663,1598.511z"/>
							
								<linearGradient id="SVGID_00000116193965788586721260000008400799506435072660_" gradientUnits="userSpaceOnUse" x1="1972.3494" y1="1986.9758" x2="2010.1825" y2="1641.3623" gradientTransform="matrix(0.9936 -0.1133 0.1133 0.9936 -309.5573 89.967)">
								<stop  offset="0" style="stop-color:#FFC444"/>
								<stop  offset="0.9964" style="stop-color:#F36F56"/>
							</linearGradient>
							<path style="fill:url(#SVGID_00000116193965788586721260000008400799506435072660_);" d="M1890.34,1735.106
								c0,0-8.968-38.232-39.684-14.255c-30.832,24.068,18.178,87.204,58.367,84.229L1890.34,1735.106z"/>
							
								<linearGradient id="SVGID_00000116919077226814929130000005458012839809886369_" gradientUnits="userSpaceOnUse" x1="2194.8005" y1="1865.5222" x2="2232.1765" y2="1524.0865">
								<stop  offset="0" style="stop-color:#FFC444"/>
								<stop  offset="0.9964" style="stop-color:#F36F56"/>
							</linearGradient>
							<path style="fill:url(#SVGID_00000116919077226814929130000005458012839809886369_);" d="M2196.914,1707.56
								c-4.95,3.165-19.138,91.42-19.138,91.42s24.874,2.534,42.819-29.208C2238.499,1738.101,2247.071,1675.494,2196.914,1707.56z"
								/>
							
								<linearGradient id="SVGID_00000093895103739918554760000009739257350826961547_" gradientUnits="userSpaceOnUse" x1="1764.1782" y1="1657.2439" x2="2270.4209" y2="1657.2439">
								<stop  offset="0" style="stop-color:#444B8C"/>
								<stop  offset="0.9964" style="stop-color:#3E4177"/>
							</linearGradient>
							<path style="fill:url(#SVGID_00000093895103739918554760000009739257350826961547_);" d="M2264.223,1539.759
								c-18.016-28.352-63.667-15.378-77.054-42.799c-11.264-23.072,15.154-44.323,0.977-64.332
								c-11.876-16.763-40.965-16.793-46.147-16.798c-39.501-0.04-48.558,29.155-76.873,28.11
								c-34.713-1.281-36.086-45.571-82.228-65.013c-45.027-18.972-111.271-5.322-138.19,28.508
								c-20.987,26.375-3.116,46.224-30.657,80.196c-18.999,23.435-35.837,24.327-45.303,47.404
								c-8.901,21.698-2.866,42.466,1.851,57.883c11.293,36.919,32.293,53.21,63.924,92.352
								c14.129,17.484,33.464,43.345,53.377,77.35c8.33,20.457,20.238,52.086,31.248,92.042
								c10.002,36.298,9.399,43.683,18.727,55.335c32.073,40.069,104.77,34.866,135.166,32.692
								c34.712-2.484,77.712-5.561,99.246-33.966c11.616-15.322,10.149-28.988,12.828-65.612
								c1.912-26.133,5.863-62.801,14.851-107.268c0.174,0.004,3.996-20.373,13.962-45.45c12.43-31.279,25.329-36.256,39.307-68.494
								C2264.428,1596.085,2278.862,1562.797,2264.223,1539.759z M2121.679,1784.226c-21.392,5.571-35.86,0.827-65.002-0.515
								c-58.604-2.697-77.214,23.06-105.099,12.031c-11.653-4.609-38.666-17.588-44.405-42.843
								c-3.321-16.395-5.662-38.808-1.861-64.766c4.641-31.7,9.993-68.249,37.397-84.316c39.602-23.218,89.924,17.103,125.85-8.718
								c13.692-9.84,19.186-24.894,21.678-36.348c7.939,2.605,70.795,24.355,93.833,87.111c14.17,38.599,6.078,73.037-0.808,91.784
								C2170.317,1756.074,2150.518,1776.715,2121.679,1784.226z"/>
							
								<linearGradient id="SVGID_00000044888370090715623110000004851509382378028165_" gradientUnits="userSpaceOnUse" x1="2084.0037" y1="1514.0481" x2="2052.4512" y2="1786.4536">
								<stop  offset="0" style="stop-color:#FFC444"/>
								<stop  offset="0.9964" style="stop-color:#F36F56"/>
							</linearGradient>
							<path style="fill:url(#SVGID_00000044888370090715623110000004851509382378028165_);" d="M2000.635,1823.567
								c22.657,6.297,56.63,10.357,94.505-3.435c3.923-1.428,7.273,2.544,4.003,4.754c-13.511,9.129-33.286,18.897-54.856,17.648
								c-17.869-1.034-34.319-7.28-47.013-13.841C1993.635,1826.811,1996.511,1822.421,2000.635,1823.567z"/>
						</g>
					</g>
				</g>
				
					<linearGradient id="SVGID_00000033360384795278030110000000353896559266975376_" gradientUnits="userSpaceOnUse" x1="899.1643" y1="2356.6829" x2="3090.2961" y2="2356.6829">
					<stop  offset="0" style="stop-color:#444B8C"/>
					<stop  offset="0.9964" style="stop-color:#26264F"/>
				</linearGradient>
				<path style="fill:url(#SVGID_00000033360384795278030110000000353896559266975376_);" d="M899.164,2310.852v137.696
					c0,20.905,18.459,37.401,42.391,36.258l2117.702-101.137c18.371-0.877,31.052-16.659,31.038-34.916l-0.089-120.249
					L899.164,2310.852z"/>
				<path style="fill:#FFFFFF;" d="M1058.614,2374.383c-0.001-20.711-19.137-36.746-42.8-35.812l-42.597,1.647
					c-23.842,0.94-45.333,18.67-45.333,39.535v31.983c0,20.866,21.493,36.843,45.336,35.753l41.545-1.877
					c23.665-1.081,43.327-18.759,43.326-39.471L1058.614,2374.383z"/>
				<path style="fill:#FFFFFF;" d="M3039.742,2312.97c0,11.738-9.586,21.719-21.432,22.221l-1346.889,59.843l-529.401,23.514
					c-15.006,0.682-27.462-9.513-27.462-22.76v-5.242c0-13.247,12.456-24.483,27.462-25.094l529.401-21.898l1346.708-55.643
					c11.848-0.466,21.539,8.652,21.539,20.391L3039.742,2312.97z"/>
				
					<linearGradient id="SVGID_00000152978932338664567790000015895810485676495499_" gradientUnits="userSpaceOnUse" x1="1114.5574" y1="2381.0679" x2="1670.9897" y2="2381.0679">
					<stop  offset="0" style="stop-color:#FF9085"/>
					<stop  offset="1" style="stop-color:#FB6FBB"/>
				</linearGradient>
				<path style="fill:url(#SVGID_00000152978932338664567790000015895810485676495499_);" d="M1670.99,2343.555v51.479
					l-529.186,23.514c-15.006,0.682-27.247-9.513-27.247-22.76v-5.242c0-13.247,12.24-24.483,27.247-25.094L1670.99,2343.555z"/>
				
					<linearGradient id="SVGID_00000054981969015100767260000015476192211369650071_" gradientUnits="userSpaceOnUse" x1="1649.0731" y1="2370.9097" x2="1750.0814" y2="2370.9097">
					<stop  offset="0" style="stop-color:#311944"/>
					<stop  offset="0.5554" style="stop-color:#6F2B60"/>
					<stop  offset="1" style="stop-color:#A03976"/>
				</linearGradient>
				<path style="fill:url(#SVGID_00000054981969015100767260000015476192211369650071_);" d="M1750.081,2368.735
					c0.007,25.376-22.491,46.979-50.337,48.255c-27.94,1.281-50.665-18.375-50.671-43.907
					c-0.006-25.531,22.707-47.143,50.646-48.267C1727.564,2323.695,1750.074,2343.359,1750.081,2368.735z"/>
			</g>
		</g>
		<g>
			<g>
				
					<linearGradient id="SVGID_00000015340308973487285660000006042033667616724364_" gradientUnits="userSpaceOnUse" x1="2940.2756" y1="2259.5598" x2="2904.9165" y2="2407.0142">
					<stop  offset="0" style="stop-color:#AB316D"/>
					<stop  offset="1" style="stop-color:#792D3D"/>
				</linearGradient>
				
					<ellipse style="fill:url(#SVGID_00000015340308973487285660000006042033667616724364_);" cx="2917.635" cy="2353.974" rx="259.011" ry="56.116"/>
				
					<linearGradient id="SVGID_00000165951671233767168240000011001700201232503168_" gradientUnits="userSpaceOnUse" x1="2951.4978" y1="2265.1628" x2="2916.5107" y2="2411.0662">
					<stop  offset="0" style="stop-color:#AB316D"/>
					<stop  offset="1" style="stop-color:#792D3D"/>
				</linearGradient>
				<path style="fill:url(#SVGID_00000165951671233767168240000011001700201232503168_);" d="M2658.842,2353.974
					c0,0-12.047,60.351-12.047,60.88c0,0.53,540.167,0,540.167,0l-10.119-60.88H2658.842z"/>
			</g>
			<ellipse style="fill:#D8DEE8;" cx="2916.878" cy="2415.119" rx="270.007" ry="58.498"/>
			<ellipse style="fill:#D8DEE8;" cx="2916.878" cy="3062.171" rx="180.477" ry="58.895"/>
			<rect x="2736.401" y="3012.111" style="fill:#D8DEE8;" width="360.954" height="48.098"/>
			<g>
				
					<linearGradient id="SVGID_00000086656948359562204110000012947821114158495633_" gradientUnits="userSpaceOnUse" x1="3453.3999" y1="2490.22" x2="2825.8032" y2="3106.1594">
					<stop  offset="0.0036" style="stop-color:#F36F56"/>
					<stop  offset="1" style="stop-color:#FFC444"/>
				</linearGradient>
				
					<ellipse style="fill:url(#SVGID_00000086656948359562204110000012947821114158495633_);" cx="2916.878" cy="3016.776" rx="194.672" ry="63.527"/>
				
					<linearGradient id="SVGID_00000000181329199385971350000003684617636308777115_" gradientUnits="userSpaceOnUse" x1="3176.3103" y1="2160.771" x2="2551.6689" y2="2773.8098">
					<stop  offset="0.0036" style="stop-color:#F36F56"/>
					<stop  offset="1" style="stop-color:#FFC444"/>
				</linearGradient>
				
					<ellipse style="fill:url(#SVGID_00000000181329199385971350000003684617636308777115_);" cx="2916.878" cy="2415.384" rx="244.151" ry="49.763"/>
				
					<linearGradient id="SVGID_00000182493135775798658510000004615332503189404849_" gradientUnits="userSpaceOnUse" x1="3320.8755" y1="2295.2322" x2="2664.5146" y2="2939.4011">
					<stop  offset="0.0036" style="stop-color:#F36F56"/>
					<stop  offset="1" style="stop-color:#FFC444"/>
				</linearGradient>
				<polygon style="fill:url(#SVGID_00000182493135775798658510000004615332503189404849_);" points="2672.575,2415.384 
					2722.206,3016.776 3111.55,3016.776 3161.182,2415.384 				"/>
			</g>
			<g style="opacity:0.3;">
				
					<linearGradient id="SVGID_00000100350494397367488020000005404975344128010926_" gradientUnits="userSpaceOnUse" x1="3347.5166" y1="2310.2654" x2="2674.2402" y2="2971.0361">
					<stop  offset="0.0036" style="stop-color:#F36F56"/>
					<stop  offset="1" style="stop-color:#FFC444"/>
				</linearGradient>
				<path style="fill:url(#SVGID_00000100350494397367488020000005404975344128010926_);" d="M3161.03,2415.384
					c0-27.483-109.31-49.763-244.151-49.763c-46.812,0-90.544,2.686-127.697,7.342c-5.771,19.229-8.863,39.633-7.924,60.95
					c5.382,122.223,138.145,163.039,184.071,278.461c27.995,70.357,29.075,181.899-76.476,367.275
					c9.152,0.43,18.509,0.654,28.026,0.654c107.514,0,194.672-28.442,194.672-63.527l49.632-601.392H3161.03z"/>
			</g>
			<g>
				
					<linearGradient id="SVGID_00000023962219726055063370000017427523065768062362_" gradientUnits="userSpaceOnUse" x1="3222.2346" y1="2409.2266" x2="2726.105" y2="2896.1409">
					<stop  offset="0" style="stop-color:#AB316D"/>
					<stop  offset="1" style="stop-color:#792D3D"/>
				</linearGradient>
				<path style="fill:url(#SVGID_00000023962219726055063370000017427523065768062362_);" d="M2713.612,2895.831
					c102.5,9.805,303.059,9.853,406.513,0.143c2.504-0.235,4.492-2.414,4.719-5.164l27.708-335.743
					c0.258-3.125-1.828-5.89-4.671-6.19c-98.677-10.4-365.047-10.347-462.008,0.16c-2.837,0.307-4.914,3.069-4.656,6.188
					l27.683,335.443C2709.127,2893.414,2711.111,2895.592,2713.612,2895.831z"/>
				<g>
					
						<linearGradient id="SVGID_00000016061388852385813030000018094806598796582574_" gradientUnits="userSpaceOnUse" x1="3212.0278" y1="2672.6724" x2="3097.4397" y2="2734.7051">
						<stop  offset="0" style="stop-color:#AB316D"/>
						<stop  offset="1" style="stop-color:#792D3D"/>
					</linearGradient>
					<path style="fill:url(#SVGID_00000016061388852385813030000018094806598796582574_);" d="M3123.879,2551.844
						c-7.182,112.545-14.364,225.09-21.546,337.635c-0.375,5.884,4.188,10.758,9.638,10.285c0.102-0.009,0.205-0.018,0.307-0.027
						c4.386-0.382,7.859-4.159,8.19-8.892c7.883-112.467,15.765-224.935,23.648-337.402c0.371-5.291-3.282-9.913-8.184-10.347
						c-0.796-0.071-1.6-0.14-2.411-0.21C3128.557,2542.46,3124.221,2546.484,3123.879,2551.844z"/>
					
						<linearGradient id="SVGID_00000165206353881971427270000016270711959753624970_" gradientUnits="userSpaceOnUse" x1="3179.959" y1="2672.793" x2="3066.9832" y2="2733.9526">
						<stop  offset="0" style="stop-color:#AB316D"/>
						<stop  offset="1" style="stop-color:#792D3D"/>
					</linearGradient>
					<path style="fill:url(#SVGID_00000165206353881971427270000016270711959753624970_);" d="M3090.497,2549.639
						c-6.1,114.056-12.201,228.111-18.301,342.167c-0.308,5.763,4.114,10.526,9.457,10.192c0.084-0.005,0.168-0.01,0.253-0.016
						c4.511-0.282,8.114-4.151,8.405-9.015c6.812-114.005,13.623-228.01,20.435-342.015c0.32-5.359-3.473-9.971-8.444-10.259
						c-0.796-0.046-1.595-0.092-2.399-0.137C3094.985,2540.279,3090.781,2544.337,3090.497,2549.639z"/>
					
						<linearGradient id="SVGID_00000169551686219121465090000000146212133978899077_" gradientUnits="userSpaceOnUse" x1="3147.7852" y1="2673.0532" x2="3036.439" y2="2733.3308">
						<stop  offset="0" style="stop-color:#AB316D"/>
						<stop  offset="1" style="stop-color:#792D3D"/>
					</linearGradient>
					<path style="fill:url(#SVGID_00000169551686219121465090000000146212133978899077_);" d="M3057.09,2548.161
						c-4.97,115.121-9.94,230.242-14.91,345.363c-0.245,5.662,4.068,10.333,9.318,10.093c0.075-0.003,0.15-0.007,0.225-0.01
						c4.607-0.211,8.31-4.163,8.555-9.13l17.065-345.257c0.266-5.381-3.6-9.956-8.592-10.159c-0.794-0.032-1.591-0.064-2.391-0.096
						C3061.456,2538.769,3057.319,2542.873,3057.09,2548.161z"/>
					
						<linearGradient id="SVGID_00000003073647922856348970000013222669633232979336_" gradientUnits="userSpaceOnUse" x1="3115.4565" y1="2673.4353" x2="3005.7654" y2="2732.8167">
						<stop  offset="0" style="stop-color:#AB316D"/>
						<stop  offset="1" style="stop-color:#792D3D"/>
					</linearGradient>
					<path style="fill:url(#SVGID_00000003073647922856348970000013222669633232979336_);" d="M3023.68,2547.147
						c-3.81,115.885-7.619,231.771-11.429,347.657c-0.183,5.58,4.049,10.161,9.223,9.99c0.068-0.002,0.137-0.005,0.205-0.007
						c4.685-0.155,8.461-4.189,8.658-9.241c4.533-115.861,9.065-231.722,13.597-347.583c0.211-5.386-3.706-9.913-8.702-10.056
						c-0.79-0.022-1.581-0.045-2.374-0.067C3027.951,2537.703,3023.854,2541.854,3023.68,2547.147z"/>
					
						<linearGradient id="SVGID_00000026126988227206625550000011544306710850759585_" gradientUnits="userSpaceOnUse" x1="3082.957" y1="2673.9255" x2="2974.9453" y2="2732.3979">
						<stop  offset="0" style="stop-color:#AB316D"/>
						<stop  offset="1" style="stop-color:#792D3D"/>
					</linearGradient>
					<path style="fill:url(#SVGID_00000026126988227206625550000011544306710850759585_);" d="M2990.273,2546.482l-7.887,349.252
						c-0.124,5.502,4.035,9.999,9.136,9.885c0.063-0.001,0.127-0.003,0.19-0.004c4.759-0.107,8.604-4.219,8.752-9.35
						c3.355-116.401,6.71-232.802,10.065-349.203c0.155-5.377-3.792-9.855-8.779-9.951c-0.792-0.015-1.584-0.03-2.378-0.045
						C2994.457,2536.974,2990.392,2541.181,2990.273,2546.482z"/>
					
						<linearGradient id="SVGID_00000081613525747084524210000009752905187683232675_" gradientUnits="userSpaceOnUse" x1="3050.2808" y1="2674.5205" x2="2943.9717" y2="2732.071">
						<stop  offset="0" style="stop-color:#AB316D"/>
						<stop  offset="1" style="stop-color:#792D3D"/>
					</linearGradient>
					<path style="fill:url(#SVGID_00000081613525747084524210000009752905187683232675_);" d="M2956.87,2546.104
						c-1.436,116.753-2.873,233.506-4.309,350.259c-0.067,5.426,4.027,9.846,9.056,9.781c0.06-0.001,0.12-0.001,0.18-0.002
						c4.83-0.063,8.74-4.25,8.837-9.46c2.164-116.743,4.328-233.487,6.492-350.23c0.1-5.367-3.876-9.791-8.853-9.846
						c-0.787-0.009-1.575-0.017-2.364-0.026C2960.98,2536.528,2956.936,2540.786,2956.87,2546.104z"/>
					
						<linearGradient id="SVGID_00000054258260404660902210000005028353410537901738_" gradientUnits="userSpaceOnUse" x1="3017.4246" y1="2675.2131" x2="2912.8391" y2="2731.8308">
						<stop  offset="0" style="stop-color:#AB316D"/>
						<stop  offset="1" style="stop-color:#792D3D"/>
					</linearGradient>
					<path style="fill:url(#SVGID_00000054258260404660902210000005028353410537901738_);" d="M2923.471,2545.983
						c-0.236,116.914-0.473,233.827-0.709,350.741c-0.011,5.349,4.012,9.693,8.971,9.673c0.066,0,0.132,0,0.197-0.001
						c4.893-0.02,8.859-4.288,8.903-9.566c0.965-116.911,1.93-233.822,2.896-350.732c0.044-5.352-3.956-9.721-8.918-9.739
						c-0.787-0.003-1.574-0.006-2.362-0.008C2927.504,2536.335,2923.482,2540.648,2923.471,2545.983z"/>
					
						<linearGradient id="SVGID_00000103952959493954415980000012905000919429735336_" gradientUnits="userSpaceOnUse" x1="2984.3867" y1="2675.9978" x2="2881.5466" y2="2731.6704">
						<stop  offset="0" style="stop-color:#AB316D"/>
						<stop  offset="1" style="stop-color:#792D3D"/>
					</linearGradient>
					<path style="fill:url(#SVGID_00000103952959493954415980000012905000919429735336_);" d="M2890.074,2546.103
						c0.965,116.907,1.93,233.813,2.896,350.72c0.043,5.277,4.007,9.544,8.899,9.566c0.066,0,0.132,0,0.197,0.001
						c4.96,0.022,8.985-4.323,8.974-9.673c-0.236-116.91-0.473-233.82-0.709-350.73c-0.011-5.335-4.034-9.649-8.98-9.632
						c-0.788,0.003-1.575,0.006-2.362,0.009C2894.029,2536.384,2890.03,2540.752,2890.074,2546.103z"/>
					
						<linearGradient id="SVGID_00000103960301242942410010000016313592298221645709_" gradientUnits="userSpaceOnUse" x1="2951.1653" y1="2676.8696" x2="2850.0918" y2="2731.5859">
						<stop  offset="0" style="stop-color:#AB316D"/>
						<stop  offset="1" style="stop-color:#792D3D"/>
					</linearGradient>
					<path style="fill:url(#SVGID_00000103960301242942410010000016313592298221645709_);" d="M2856.676,2546.467
						c2.164,116.732,4.328,233.464,6.492,350.196c0.096,5.208,4.004,9.395,8.833,9.46c0.06,0.001,0.12,0.001,0.18,0.002
						c5.031,0.067,9.127-4.354,9.06-9.781c-1.436-116.741-2.872-233.483-4.308-350.225c-0.065-5.319-4.112-9.578-9.043-9.525
						c-0.789,0.009-1.577,0.018-2.364,0.026C2860.551,2536.679,2856.577,2541.101,2856.676,2546.467z"/>
					
						<linearGradient id="SVGID_00000005248996697935094650000015967789685649841082_" gradientUnits="userSpaceOnUse" x1="2917.7617" y1="2677.8271" x2="2818.4744" y2="2731.5767">
						<stop  offset="0" style="stop-color:#AB316D"/>
						<stop  offset="1" style="stop-color:#792D3D"/>
					</linearGradient>
					<path style="fill:url(#SVGID_00000005248996697935094650000015967789685649841082_);" d="M2823.275,2547.09
						c3.355,116.381,6.709,232.761,10.064,349.142c0.148,5.13,3.991,9.241,8.748,9.35c0.063,0.001,0.127,0.003,0.191,0.004
						c5.103,0.117,9.265-4.381,9.141-9.885c-2.629-116.397-5.257-232.795-7.886-349.192c-0.12-5.303-4.187-9.51-9.103-9.416
						c-0.794,0.015-1.587,0.031-2.378,0.046C2827.065,2537.236,2823.12,2541.714,2823.275,2547.09z"/>
					
						<linearGradient id="SVGID_00000093893273387529315370000015515110805082484397_" gradientUnits="userSpaceOnUse" x1="2884.1738" y1="2678.8694" x2="2786.6941" y2="2731.6404">
						<stop  offset="0" style="stop-color:#AB316D"/>
						<stop  offset="1" style="stop-color:#792D3D"/>
					</linearGradient>
					<path style="fill:url(#SVGID_00000093893273387529315370000015515110805082484397_);" d="M2789.869,2548.005
						c4.531,115.831,9.063,231.662,13.594,347.493c0.198,5.05,3.97,9.083,8.654,9.241c0.069,0.002,0.137,0.005,0.206,0.007
						c5.176,0.174,9.411-4.407,9.228-9.99c-3.809-115.856-7.617-231.712-11.426-347.568c-0.174-5.294-4.273-9.446-9.183-9.307
						c-0.793,0.022-1.584,0.045-2.374,0.068C2793.573,2538.094,2789.659,2542.621,2789.869,2548.005z"/>
					
						<linearGradient id="SVGID_00000072259184833727465660000018181074048157300384_" gradientUnits="userSpaceOnUse" x1="2850.3999" y1="2679.9968" x2="2754.7507" y2="2731.7769">
						<stop  offset="0" style="stop-color:#AB316D"/>
						<stop  offset="1" style="stop-color:#792D3D"/>
					</linearGradient>
					<path style="fill:url(#SVGID_00000072259184833727465660000018181074048157300384_);" d="M2756.463,2549.279
						c5.686,115.044,11.372,230.088,17.059,345.132c0.245,4.965,3.945,8.916,8.55,9.13c0.075,0.004,0.15,0.007,0.226,0.01
						c5.252,0.244,9.569-4.428,9.324-10.093c-4.968-115.08-9.937-230.159-14.905-345.239c-0.228-5.29-4.369-9.394-9.275-9.197
						c-0.799,0.032-1.596,0.065-2.391,0.097C2760.06,2539.325,2756.197,2543.9,2756.463,2549.279z"/>
					
						<linearGradient id="SVGID_00000098943285664828452250000012156010250767376514_" gradientUnits="userSpaceOnUse" x1="2816.4395" y1="2681.2229" x2="2722.646" y2="2731.9983">
						<stop  offset="0" style="stop-color:#AB316D"/>
						<stop  offset="1" style="stop-color:#792D3D"/>
					</linearGradient>
					<path style="fill:url(#SVGID_00000098943285664828452250000012156010250767376514_);" d="M2723.063,2551.037
						c6.808,113.947,13.616,227.893,20.424,341.84c0.291,4.861,3.889,8.728,8.397,9.015c0.084,0.005,0.169,0.011,0.253,0.016
						c5.346,0.339,9.773-4.425,9.465-10.192c-6.097-113.998-12.194-227.996-18.292-341.994c-0.284-5.305-4.493-9.365-9.412-9.083
						c-0.804,0.046-1.604,0.093-2.399,0.139C2726.531,2541.071,2722.743,2545.681,2723.063,2551.037z"/>
					
						<linearGradient id="SVGID_00000072241994677182873460000008493054165308163763_" gradientUnits="userSpaceOnUse" x1="2782.2944" y1="2682.6038" x2="2690.394" y2="2732.3542">
						<stop  offset="0" style="stop-color:#AB316D"/>
						<stop  offset="1" style="stop-color:#792D3D"/>
					</linearGradient>
					<path style="fill:url(#SVGID_00000072241994677182873460000008493054165308163763_);" d="M2689.695,2553.571
						c7.876,112.382,15.753,224.764,23.63,337.146c0.331,4.728,3.797,8.502,8.177,8.891c0.103,0.009,0.205,0.018,0.308,0.027
						c5.455,0.482,10.027-4.394,9.651-10.284c-7.176-112.461-14.353-224.922-21.53-337.383c-0.343-5.366-4.688-9.392-9.657-8.958
						c-0.812,0.071-1.615,0.142-2.411,0.214C2692.969,2543.668,2689.325,2548.287,2689.695,2553.571z"/>
				</g>
			</g>
			<path style="opacity:0.3;fill:#FFFFFF;" d="M2901.869,2906.39c0.066,0,0.132,0,0.198,0.001c2.642,0.012,5.011-1.223,6.654-3.182
				c5.451,0.014,10.907,0.015,16.359,0.003c1.642,1.959,4.011,3.195,6.653,3.185c0.066,0,0.132,0,0.197-0.001
				c2.639-0.011,5.001-1.264,6.631-3.238c5.473-0.032,10.934-0.078,16.374-0.135c1.658,1.941,4.038,3.156,6.683,3.121
				c0.06-0.001,0.12-0.001,0.18-0.002c1.327-0.017,2.583-0.349,3.71-0.926c24.552-86.581,17.641-148.057-0.179-192.842
				c-29.616-74.431-95.34-117.839-139.732-172.057c-0.447,0.533-0.842,1.117-1.171,1.746c-5.278,0.112-10.499,0.233-15.657,0.365
				c-1.626-2.806-4.542-4.64-7.827-4.547c-0.793,0.022-1.584,0.045-2.374,0.068c-3.286,0.096-6.095,2.094-7.579,4.979
				c-5.321,0.165-10.555,0.34-15.69,0.527c-1.657-2.774-4.583-4.565-7.858-4.433c-0.799,0.032-1.596,0.065-2.391,0.097
				c-3.273,0.135-6.052,2.156-7.509,5.044c-5.388,0.235-10.64,0.484-15.738,0.746c-1.7-2.729-4.642-4.458-7.905-4.271
				c-0.804,0.046-1.604,0.093-2.399,0.14c-3.255,0.192-5.995,2.243-7.414,5.138c-5.517,0.346-10.799,0.71-15.819,1.094
				c-1.771-2.655-4.744-4.283-7.992-3.999c-0.812,0.071-1.615,0.142-2.411,0.214c-3.227,0.292-5.9,2.404-7.248,5.319
				c-1.622,0.161-3.203,0.325-4.741,0.492c-2.837,0.307-4.914,3.069-4.656,6.188l27.683,335.443c0.227,2.747,2.21,4.924,4.711,5.164
				c0.539,0.052,1.085,0.103,1.63,0.154c1.492,2.029,3.72,3.398,6.26,3.623c0.103,0.009,0.205,0.018,0.308,0.027
				c2.601,0.23,5-0.76,6.759-2.496c5.438,0.435,11.09,0.846,16.93,1.234c1.534,2.019,3.81,3.354,6.385,3.518
				c0.084,0.005,0.169,0.011,0.253,0.016c2.623,0.166,5.023-0.897,6.752-2.703c5.437,0.314,11.012,0.61,16.706,0.887
				c1.564,2.014,3.875,3.328,6.476,3.449c0.075,0.004,0.15,0.007,0.226,0.011c2.634,0.122,5.031-0.992,6.737-2.848
				c5.431,0.23,10.953,0.445,16.556,0.644c1.583,2.006,3.912,3.304,6.527,3.392c0.069,0.002,0.137,0.005,0.206,0.007
				c2.642,0.089,5.035-1.066,6.724-2.956c5.43,0.165,10.924,0.315,16.469,0.451c1.601,1.998,3.945,3.281,6.571,3.341
				c0.063,0.002,0.127,0.003,0.191,0.004c2.646,0.061,5.032-1.126,6.706-3.045c5.432,0.11,10.906,0.206,16.409,0.289
				c1.617,1.988,3.973,3.257,6.609,3.292c0.06,0.001,0.12,0.002,0.18,0.002c2.646,0.035,5.025-1.178,6.684-3.119
				c5.44,0.06,10.9,0.108,16.375,0.143C2896.869,2905.124,2899.231,2906.378,2901.869,2906.39z"/>
		</g>
		<g>
			
				<linearGradient id="SVGID_00000116219458496495892210000014411209330682308249_" gradientUnits="userSpaceOnUse" x1="618.2198" y1="2734.9211" x2="1902.2314" y2="2734.9211">
				<stop  offset="0" style="stop-color:#FFC444"/>
				<stop  offset="0.9964" style="stop-color:#F36F56"/>
			</linearGradient>
			<polygon style="fill:url(#SVGID_00000116219458496495892210000014411209330682308249_);" points="618.22,2674.704 
				1214.831,2648.764 1902.231,2672.851 1224.095,2821.078 			"/>
			<g>
				
					<linearGradient id="SVGID_00000039838978437251947200000002199671023387242938_" gradientUnits="userSpaceOnUse" x1="760.3945" y1="3243.9834" x2="865.0627" y2="3005.9141">
					<stop  offset="0" style="stop-color:#AA80F9"/>
					<stop  offset="0.9964" style="stop-color:#6165D7"/>
				</linearGradient>
				<path style="fill:url(#SVGID_00000039838978437251947200000002199671023387242938_);" d="M1098.919,3249.618l-483.266-130.066
					c-48.67-13.099-86.483-61.321-86.483-108.086v-0.514c0-46.764,37.814-78.14,86.483-69.554l518.326,84.821L1098.919,3249.618z"/>
				<g>
					
						<linearGradient id="SVGID_00000142889412474348463770000017135522099893376647_" gradientUnits="userSpaceOnUse" x1="1033.0867" y1="3107.4268" x2="1903.0594" y2="3107.4268">
						<stop  offset="0" style="stop-color:#FF9085"/>
						<stop  offset="1" style="stop-color:#FB6FBB"/>
					</linearGradient>
					<path style="fill:url(#SVGID_00000142889412474348463770000017135522099893376647_);" d="M1903.059,3151.942l-780.856,87.202
						c-48.908,5.462-89.117-28.644-89.117-76.255v-32.298c0-47.611,40.209-89.408,89.117-93.301l780.856-62.155
						C1868.506,3039.46,1860.534,3099.639,1903.059,3151.942z"/>
					
						<linearGradient id="SVGID_00000074442146228760636060000017027283361499702671_" gradientUnits="userSpaceOnUse" x1="1012.0924" y1="3107.8384" x2="1918.3596" y2="3107.8384">
						<stop  offset="0" style="stop-color:#AA80F9"/>
						<stop  offset="0.9964" style="stop-color:#6165D7"/>
					</linearGradient>
					<path style="fill:url(#SVGID_00000074442146228760636060000017027283361499702671_);" d="M1909.855,3160.601l-781.109,88.567
						c-63.792,7.233-116.654-37.448-116.654-99.736v-0.685c0-62.288,52.862-117.085,116.654-122.061l781.109-60.922
						c4.7-0.367,8.504,3.547,8.504,8.74c0,5.194-3.804,9.713-8.504,10.096l-781.109,63.595
						c-51.319,4.178-93.693,48.329-93.693,98.356v0.682c0,50.027,42.374,86.068,93.693,80.425l781.109-85.895
						c4.7-0.517,8.504,3.275,8.504,8.469C1918.36,3155.426,1914.555,3160.068,1909.855,3160.601z"/>
				</g>
			</g>
			<g>
				
					<linearGradient id="SVGID_00000003791025769445234780000015600608389514726324_" gradientUnits="userSpaceOnUse" x1="912.3409" y1="2602.0552" x2="728.8417" y2="3220.1592">
					<stop  offset="0" style="stop-color:#FFC444"/>
					<stop  offset="0.9964" style="stop-color:#F36F56"/>
				</linearGradient>
				<path style="fill:url(#SVGID_00000003791025769445234780000015600608389514726324_);" d="M1119.222,3026.743l-503.569-85.345
					c-48.67-8.585-86.483-72.381-86.483-142.598v-0.772c0-70.217,37.814-125.938,86.483-124.13l534.187,19.843L1119.222,3026.743z"
					/>
				<g>
					
						<linearGradient id="SVGID_00000037688208073435963620000014850536290708729009_" gradientUnits="userSpaceOnUse" x1="1033.0867" y1="2847.3889" x2="1903.0594" y2="2847.3889">
						<stop  offset="0" style="stop-color:#FF9085"/>
						<stop  offset="1" style="stop-color:#FB6FBB"/>
					</linearGradient>
					<path style="fill:url(#SVGID_00000037688208073435963620000014850536290708729009_);" d="M1903.059,2952.136l-737.093,55.596
						c-72.695,5.483-132.88-47.93-132.88-119.418v-48.497c0-71.488,60.185-131.082,132.88-133.063l737.093-20.094
						C1868.395,2783.046,1860.647,2873.303,1903.059,2952.136z"/>
					
						<linearGradient id="SVGID_00000050626229907025691260000009445182044491690405_" gradientUnits="userSpaceOnUse" x1="1012.0924" y1="2850.0725" x2="1918.3596" y2="2850.0725">
						<stop  offset="0" style="stop-color:#FFC444"/>
						<stop  offset="0.9964" style="stop-color:#F36F56"/>
					</linearGradient>
					<path style="fill:url(#SVGID_00000050626229907025691260000009445182044491690405_);" d="M1909.855,2965.765l-781.109,60.922
						c-63.792,4.976-116.654-66.99-116.654-160.516v-1.028c0-93.526,52.862-170.928,116.654-172.513l781.109-19.413
						c4.7-0.117,8.504,6.11,8.504,13.908c0,7.798-3.804,14.234-8.504,14.375l-781.109,23.426
						c-51.319,1.539-93.693,63.922-93.693,139.039v1.024c0,75.117,42.374,133.142,93.693,129.403l781.109-56.909
						c4.7-0.343,8.504,5.702,8.504,13.5S1914.555,2965.398,1909.855,2965.765z"/>
				</g>
			</g>
			<path style="opacity:0.5;fill:#FFFFFF;" d="M963.066,2956.373l-107.641-18.811c-25.135-68.605-23.245-131.626,0-206.949
				l107.641,7.652C941.004,2817.527,944.344,2889.323,963.066,2956.373z"/>
		</g>
		<g>
			<g>
				
					<linearGradient id="SVGID_00000065774286940277944650000002389717639254818990_" gradientUnits="userSpaceOnUse" x1="1766.0015" y1="1560.4303" x2="1382.6918" y2="1451.9617">
					<stop  offset="0" style="stop-color:#311944"/>
					<stop  offset="1" style="stop-color:#A03976"/>
				</linearGradient>
				<path style="fill:url(#SVGID_00000065774286940277944650000002389717639254818990_);" d="M1469.722,1532.811
					c12.276,6.232,27.698,0.51,34.447-12.782s2.268-29.12-10.008-35.352c-0.636-0.323-1.285-0.594-1.936-0.854
					c2.281-7.355,4-14.767,5.153-22.183c0.704-0.002,1.41-0.014,2.127-0.078c14.005-1.248,25.121-14.118,24.828-28.746
					c-0.293-14.628-11.885-25.474-25.89-24.225c-0.732,0.066-1.451,0.181-2.166,0.308c-1.463-7.249-3.468-14.33-5.996-21.183
					c0.644-0.377,1.285-0.766,1.912-1.205c11.982-8.394,15.813-24.963,8.556-37.007c-7.256-12.044-22.853-15.001-34.835-6.607
					c-0.614,0.431-1.192,0.895-1.762,1.367c-4.733-5.232-9.923-10.081-15.539-14.505c0.395-0.647,0.781-1.303,1.131-1.992
					c6.748-13.292,15.568-27.812,3.196-33.851c-28.62-13.971-40.901-2.011-47.65,11.281c-0.349,0.688-0.651,1.388-0.94,2.088
					c-6.886-1.923-13.864-3.252-20.88-3.986c0.044-0.739,0.078-1.479,0.063-2.229c-0.294-14.627,4.047-22.543-10.012-22.816
					c-30.656-0.596-41,12.71-40.706,27.337c0.015,0.765,0.079,1.512,0.155,2.255c-7.025,2.003-13.925,4.563-20.641,7.66
					c-0.319-0.652-0.65-1.301-1.029-1.931c-7.257-12.043-22.853-15.001-34.836-6.606c-11.982,8.395-15.813,24.963-8.556,37.007
					c0.371,0.617,0.779,1.194,1.192,1.763c-5.306,5.307-10.276,11.069-14.868,17.251c-0.594-0.373-1.196-0.737-1.832-1.059
					c-12.276-6.232-27.698-0.51-34.446,12.782c-6.749,13.292-2.268,29.12,10.008,35.352c0.636,0.323,1.285,0.594,1.936,0.854
					c-2.281,7.355-4,14.767-5.154,22.183c-0.704,0.002-1.41,0.014-2.127,0.077c-14.006,1.249-25.121,14.119-24.828,28.746
					s11.885,25.473,25.89,24.225c0.732-0.065,1.451-0.18,2.166-0.308c1.463,7.249,3.467,14.33,5.996,21.184
					c-0.644,0.377-1.285,0.767-1.911,1.205c-11.982,8.394-15.813,24.964-8.556,37.007c7.257,12.044,31.281,17.639,43.263,9.244
					c0.614-0.43-7.236-3.532-6.666-4.004c4.733,5.232,9.923,10.08,15.539,14.505c-0.394,0.647-0.781,1.303-1.131,1.992
					c-6.749,13.292-2.268,29.12,10.008,35.352s27.698,0.51,34.447-12.782c0.35-0.689,0.651-1.388,0.941-2.088
					c6.886,1.923,13.863,3.252,20.88,3.986c-0.044,0.739-0.078,1.479-0.063,2.229c0.293,14.627,11.885,25.473,25.89,24.225
					c14.005-1.248,25.121-14.119,24.828-28.746c-0.016-0.764-0.079-1.512-0.155-2.254c7.026-2.003,13.925-4.563,20.641-7.659
					c0.319,0.652,0.65,1.301,1.03,1.93c7.257,12.043,22.853,15.002,34.835,6.607c11.983-8.395,15.813-24.963,8.557-37.007
					c-0.372-0.617-0.779-1.193-1.193-1.762c5.306-5.307,10.276-11.069,14.868-17.251
					C1468.484,1532.124,1469.086,1532.488,1469.722,1532.811z M1316.695,1534.752c-44.57-22.629-60.838-80.096-36.335-128.356
					c24.503-48.26,80.497-69.038,125.067-46.409c44.57,22.629,60.838,80.096,36.335,128.356
					C1417.259,1536.604,1361.265,1557.381,1316.695,1534.752z"/>
				
					<linearGradient id="SVGID_00000003075820815224511530000010289244211530175660_" gradientUnits="userSpaceOnUse" x1="1764.9966" y1="1563.9803" x2="1381.6859" y2="1455.5115">
					<stop  offset="0" style="stop-color:#311944"/>
					<stop  offset="1" style="stop-color:#A03976"/>
				</linearGradient>
				<path style="fill:url(#SVGID_00000003075820815224511530000010289244211530175660_);" d="M1499.505,1461.562
					c14.005-1.249,25.121-14.118,24.828-28.746c-0.293-14.627-11.885-25.474-25.89-24.225c-0.732,0.065-1.451,0.181-2.166,0.308
					c-1.463-7.249-3.468-14.33-5.996-21.183c0.644-0.377,1.285-0.766,1.912-1.205c11.982-8.394,26.806-28.679,18.352-39.914
					c-16.045-21.324-32.649-12.094-44.631-3.7c-0.614,0.431-1.192,0.895-1.762,1.366c-4.733-5.232-9.924-10.08-15.539-14.505
					c0.395-0.647,0.781-1.303,1.131-1.991c3.673-7.234,3.997-15.21,1.571-21.991c-11.573,20.37-22.991,40.825-34.204,61.392
					c35.556,26.055,46.876,77.401,24.651,121.176c-18.834,37.095-56.272,57.924-92.827,55.314
					c-1.631,4.229-3.232,8.481-4.978,12.669c-4.738,11.366-10.122,22.497-15.512,33.615c3.39,0.639,6.795,1.142,10.209,1.5
					c-0.044,0.739-0.078,1.48-0.063,2.229c0.293,14.627,9.174,27.055,34.557,25.709c14.041-0.745,16.454-15.602,16.161-30.23
					c-0.016-0.764-0.079-1.512-0.155-2.254c7.025-2.003,13.925-4.563,20.64-7.66c0.319,0.653,0.65,1.301,1.03,1.93
					c7.256,12.044,32.431,17.161,44.413,8.766c11.982-8.395,6.235-27.123-1.021-39.166c-0.372-0.617-0.779-1.194-1.192-1.763
					c5.306-5.307,10.276-11.069,14.867-17.25c0.594,0.373,1.196,0.737,1.832,1.059c12.276,6.233,27.698,0.51,34.447-12.782
					c6.748-13.291,2.268-29.12-10.008-35.352c-0.636-0.323-1.285-0.594-1.936-0.854c2.281-7.355,4-14.768,5.153-22.182
					C1498.082,1461.637,1498.788,1461.625,1499.505,1461.562z"/>
				
					<linearGradient id="SVGID_00000174579062414839271700000013258042323711012791_" gradientUnits="userSpaceOnUse" x1="1372.646" y1="1318.1993" x2="1378.6401" y2="1802.2347">
					<stop  offset="0" style="stop-color:#FF9085"/>
					<stop  offset="1" style="stop-color:#FB6FBB"/>
				</linearGradient>
				<path style="fill:url(#SVGID_00000174579062414839271700000013258042323711012791_);" d="M1482.925,1534.312
					c12.276,6.233,27.698,0.51,34.446-12.782c6.749-13.292,2.268-29.119-10.008-35.352c-0.636-0.323-1.285-0.594-1.936-0.854
					c2.281-7.355,4-14.767,5.154-22.183c0.704-0.002,1.41-0.014,2.127-0.078c14.005-1.248,25.121-14.118,24.828-28.746
					c-0.293-14.628-11.885-25.474-25.89-24.225c-0.732,0.066-1.451,0.181-2.166,0.308c-1.463-7.249-3.467-14.33-5.996-21.183
					c0.644-0.377,1.285-0.767,1.912-1.205c11.982-8.394,15.813-24.963,8.556-37.007c-7.256-12.043-22.853-15.001-34.835-6.606
					c-0.614,0.43-1.192,0.895-1.763,1.366c-4.732-5.232-9.923-10.08-15.539-14.505c0.395-0.648,0.781-1.304,1.131-1.992
					c6.749-13.292,2.268-29.12-10.007-35.352c-12.276-6.233-27.698-0.51-34.447,12.782c-0.35,0.688-0.651,1.388-0.941,2.089
					c-6.886-1.923-13.863-3.252-20.88-3.986c0.044-0.739,0.078-1.479,0.063-2.229c-0.294-14.627-11.885-25.473-25.89-24.225
					c-14.005,1.248-25.121,14.119-24.827,28.745c0.015,0.765,0.079,1.512,0.155,2.255c-7.025,2.003-13.925,4.563-20.641,7.66
					c-0.319-0.652-0.65-1.301-1.029-1.931c-7.257-12.043-22.853-15.001-34.835-6.606c-11.982,8.396-15.813,24.964-8.556,37.007
					c0.372,0.617,0.779,1.194,1.193,1.763c-5.306,5.307-10.276,11.069-14.868,17.251c-0.594-0.372-1.196-0.736-1.832-1.059
					c-12.275-6.233-27.697-0.51-34.446,12.782c-6.749,13.292-2.268,29.12,10.007,35.352c0.636,0.323,1.285,0.594,1.936,0.854
					c-2.281,7.355-4,14.767-5.153,22.183c-0.704,0.002-1.41,0.014-2.127,0.077c-14.005,1.249-25.121,14.119-24.828,28.747
					c0.293,14.628,11.885,25.473,25.89,24.224c0.732-0.065,1.451-0.18,2.165-0.308c1.463,7.249,3.468,14.33,5.996,21.184
					c-0.644,0.377-1.285,0.766-1.911,1.205c-11.982,8.394-15.813,24.963-8.557,37.007c7.257,12.044,22.853,15.001,34.835,6.607
					c0.614-0.431,1.192-0.895,1.762-1.367c4.733,5.232,9.923,10.08,15.539,14.505c-0.395,0.647-0.782,1.303-1.131,1.992
					c-6.749,13.292-2.268,29.12,10.007,35.352c12.276,6.232,27.698,0.51,34.446-12.782c0.35-0.688,0.651-1.387,0.941-2.088
					c6.887,1.923,13.864,3.252,20.88,3.986c-0.044,0.739-0.078,1.479-0.063,2.229c0.294,14.627,11.885,25.473,25.89,24.225
					c14.005-1.249,25.121-14.119,24.827-28.746c-0.015-0.764-0.079-1.512-0.155-2.255c7.026-2.003,13.925-4.563,20.64-7.659
					c0.319,0.652,0.651,1.301,1.03,1.93c7.256,12.044,22.852,15.002,34.835,6.607c11.982-8.395,15.813-24.964,8.557-37.008
					c-0.372-0.616-0.779-1.193-1.193-1.763c5.306-5.307,10.276-11.069,14.868-17.25
					C1481.687,1533.625,1482.289,1533.989,1482.925,1534.312z M1329.898,1536.253c-44.57-22.629-60.838-80.096-36.335-128.356
					c24.503-48.26,80.497-69.038,125.067-46.409c44.57,22.629,60.838,80.096,36.335,128.356
					C1430.462,1538.105,1374.468,1558.882,1329.898,1536.253z"/>
			</g>
			<g>
				
					<linearGradient id="SVGID_00000058553872305942018180000001652836190917530528_" gradientUnits="userSpaceOnUse" x1="1759.78" y1="1257.2411" x2="1008.92" y2="1044.7634">
					<stop  offset="0" style="stop-color:#311944"/>
					<stop  offset="1" style="stop-color:#A03976"/>
				</linearGradient>
				<path style="fill:url(#SVGID_00000058553872305942018180000001652836190917530528_);" d="M1179.403,1203.137
					c24.047,12.209,54.257,0.999,67.477-25.039c13.22-26.037,4.443-57.043-19.604-69.251c-1.246-0.633-2.517-1.164-3.792-1.673
					c4.468-14.407,7.836-28.927,10.095-43.453c1.378-0.004,2.761-0.027,4.167-0.152c27.435-2.446,49.209-27.655,48.635-56.31
					c-0.574-28.654-23.281-49.901-50.715-47.455c-1.435,0.129-2.843,0.355-4.243,0.604c-2.866-14.2-6.792-28.071-11.746-41.496
					c1.262-0.739,2.517-1.502,3.744-2.361c23.471-16.444,30.976-48.9,16.761-72.492c-14.215-23.592-44.767-29.386-68.238-12.942
					c-1.203,0.843-2.334,1.753-3.452,2.677c-9.271-10.249-19.439-19.746-30.44-28.414c0.773-1.268,1.53-2.553,2.215-3.902
					c13.22-26.037,30.495-54.479,6.26-66.31c-56.062-27.368-80.12-3.94-93.34,22.097c-0.684,1.349-1.275,2.719-1.842,4.091
					c-13.49-3.766-27.157-6.371-40.902-7.808c0.086-1.447,0.153-2.898,0.124-4.367c-0.575-28.653,7.927-44.159-19.612-44.695
					c-60.052-1.168-80.313,24.898-79.739,53.55c0.03,1.498,0.155,2.962,0.303,4.417c-13.762,3.923-27.277,8.938-40.432,15.004
					c-0.625-1.278-1.274-2.548-2.017-3.782c-14.215-23.592-44.766-29.385-68.239-12.94c-23.472,16.445-30.976,48.9-16.761,72.492
					c0.728,1.209,1.526,2.339,2.336,3.454c-10.394,10.396-20.129,21.684-29.124,33.792c-1.163-0.73-2.343-1.443-3.589-2.075
					c-24.047-12.209-54.257-0.999-67.477,25.039c-13.22,26.037-4.443,57.042,19.604,69.251c1.246,0.633,2.518,1.164,3.793,1.673
					c-4.468,14.407-7.836,28.927-10.095,43.453c-1.378,0.004-2.761,0.027-4.166,0.151c-27.436,2.447-49.21,27.657-48.635,56.311
					c0.575,28.654,23.281,49.899,50.716,47.453c1.433-0.128,2.842-0.353,4.242-0.603c2.865,14.2,6.792,28.071,11.746,41.497
					c-1.262,0.738-2.518,1.501-3.744,2.361c-23.472,16.444-30.976,48.9-16.761,72.492c14.215,23.592,61.276,34.552,84.747,18.108
					c1.203-0.843-14.175-6.919-13.057-7.843c9.271,10.248,19.439,19.746,30.44,28.414c-0.773,1.268-1.53,2.553-2.216,3.902
					c-13.22,26.037-4.442,57.042,19.604,69.251c24.047,12.209,54.257,0.999,67.477-25.039c0.685-1.349,1.275-2.719,1.842-4.091
					c13.49,3.767,27.157,6.371,40.902,7.808c-0.086,1.447-0.153,2.898-0.123,4.367c0.575,28.653,23.281,49.899,50.716,47.453
					c27.435-2.446,49.21-27.657,48.635-56.31c-0.03-1.497-0.155-2.962-0.304-4.416c13.762-3.922,27.278-8.938,40.432-15.004
					c0.625,1.278,1.275,2.548,2.017,3.781c14.215,23.592,44.766,29.387,68.238,12.941c23.472-16.445,30.976-48.9,16.761-72.493
					c-0.728-1.207-1.526-2.337-2.336-3.452c10.394-10.396,20.129-21.684,29.124-33.792
					C1176.977,1201.791,1178.157,1202.504,1179.403,1203.137z M879.64,1206.94c-87.308-44.328-119.174-156.899-71.176-251.435
					c47.998-94.537,157.685-135.239,244.992-90.91c87.308,44.328,119.174,156.899,71.176,251.435
					C1076.634,1210.567,966.947,1251.268,879.64,1206.94z"/>
				
					<linearGradient id="SVGID_00000143588969592765293160000011880788379380593071_" gradientUnits="userSpaceOnUse" x1="1757.811" y1="1264.1948" x2="1006.95" y2="1051.7168">
					<stop  offset="0" style="stop-color:#311944"/>
					<stop  offset="1" style="stop-color:#A03976"/>
				</linearGradient>
				<path style="fill:url(#SVGID_00000143588969592765293160000011880788379380593071_);" d="M1237.745,1063.569
					c27.435-2.447,49.209-27.657,48.635-56.311c-0.574-28.654-23.281-49.9-50.715-47.454c-1.434,0.128-2.843,0.355-4.243,0.603
					c-2.865-14.201-6.792-28.07-11.746-41.496c1.262-0.737,2.517-1.502,3.744-2.361c23.471-16.444,52.51-56.178,35.951-78.187
					c-31.43-41.771-63.956-23.69-87.427-7.247c-1.203,0.843-2.334,1.753-3.452,2.676c-9.271-10.249-19.439-19.746-30.44-28.414
					c0.773-1.268,1.53-2.552,2.215-3.901c7.195-14.171,7.83-29.795,3.078-43.077c-22.671,39.902-45.037,79.972-67.001,120.26
					c69.651,51.039,91.826,151.62,48.289,237.37c-36.893,72.665-110.23,113.467-181.838,108.354
					c-3.194,8.284-6.331,16.613-9.751,24.817c-9.282,22.264-19.827,44.07-30.386,65.847c6.641,1.252,13.31,2.237,19.998,2.937
					c-0.086,1.449-0.153,2.899-0.123,4.367c0.575,28.654,17.971,52.998,67.693,50.361c27.505-1.459,32.232-30.563,31.658-59.217
					c-0.03-1.497-0.155-2.962-0.303-4.416c13.762-3.922,27.277-8.938,40.432-15.004c0.625,1.278,1.275,2.548,2.018,3.781
					c14.215,23.593,63.528,33.617,87,17.172c23.472-16.445,12.214-53.13-2.001-76.722c-0.728-1.209-1.526-2.339-2.336-3.454
					c10.394-10.395,20.129-21.683,29.124-33.791c1.164,0.73,2.343,1.443,3.589,2.074c24.047,12.21,54.257,0.999,67.477-25.039
					c13.219-26.036,4.443-57.042-19.604-69.25c-1.246-0.633-2.517-1.164-3.793-1.673c4.468-14.407,7.836-28.928,10.095-43.453
					C1234.956,1063.717,1236.339,1063.693,1237.745,1063.569z"/>
				
					<linearGradient id="SVGID_00000122678322015041945530000012154355330052753320_" gradientUnits="userSpaceOnUse" x1="989.2414" y1="782.7379" x2="1000.9833" y2="1730.9084">
					<stop  offset="0" style="stop-color:#FF9085"/>
					<stop  offset="1" style="stop-color:#FB6FBB"/>
				</linearGradient>
				<path style="fill:url(#SVGID_00000122678322015041945530000012154355330052753320_);" d="M1205.266,1206.078
					c24.046,12.209,54.257,0.999,67.477-25.039c13.22-26.037,4.443-57.042-19.604-69.251c-1.246-0.632-2.517-1.164-3.792-1.672
					c4.467-14.407,7.836-28.928,10.094-43.454c1.379-0.004,2.762-0.027,4.167-0.152c27.435-2.446,49.208-27.656,48.634-56.309
					c-0.574-28.654-23.28-49.9-50.715-47.455c-1.434,0.129-2.842,0.355-4.243,0.604c-2.866-14.2-6.792-28.071-11.746-41.496
					c1.262-0.739,2.518-1.502,3.745-2.361c23.471-16.444,30.976-48.9,16.761-72.492c-14.215-23.592-44.766-29.386-68.238-12.942
					c-1.203,0.843-2.335,1.753-3.453,2.676c-9.27-10.248-19.438-19.745-30.439-28.414c0.773-1.268,1.531-2.553,2.215-3.902
					c13.22-26.037,4.443-57.042-19.604-69.251c-24.047-12.209-54.257-0.999-67.476,25.039c-0.685,1.349-1.275,2.719-1.843,4.091
					c-13.49-3.766-27.157-6.37-40.901-7.808c0.085-1.448,0.152-2.898,0.123-4.367c-0.575-28.653-23.281-49.899-50.716-47.454
					c-27.435,2.445-49.209,27.657-48.635,56.309c0.03,1.498,0.155,2.962,0.304,4.416c-13.762,3.923-27.277,8.938-40.432,15.005
					c-0.625-1.278-1.274-2.548-2.016-3.782c-14.215-23.592-44.766-29.386-68.239-12.941c-23.473,16.446-30.976,48.901-16.761,72.492
					c0.728,1.208,1.526,2.339,2.336,3.454c-10.394,10.396-20.129,21.683-29.124,33.792c-1.163-0.73-2.342-1.443-3.589-2.075
					c-24.047-12.21-54.256-0.999-67.476,25.038c-13.22,26.038-4.443,57.042,19.603,69.251c1.246,0.633,2.518,1.164,3.793,1.673
					c-4.468,14.407-7.837,28.927-10.095,43.453c-1.378,0.004-2.762,0.027-4.166,0.151c-27.435,2.447-49.21,27.657-48.635,56.311
					c0.574,28.654,23.281,49.898,50.716,47.453c1.433-0.128,2.842-0.353,4.242-0.603c2.866,14.2,6.792,28.071,11.746,41.496
					c-1.262,0.738-2.518,1.501-3.744,2.361c-23.472,16.443-30.976,48.9-16.761,72.492c14.215,23.592,44.766,29.385,68.238,12.942
					c1.203-0.844,2.335-1.753,3.453-2.677c9.271,10.249,19.439,19.746,30.44,28.414c-0.773,1.268-1.531,2.553-2.216,3.901
					c-13.22,26.037-4.443,57.042,19.604,69.251c24.046,12.209,54.257,0.999,67.477-25.039c0.685-1.348,1.275-2.718,1.842-4.091
					c13.49,3.766,27.158,6.37,40.902,7.808c-0.086,1.448-0.153,2.898-0.123,4.367c0.575,28.653,23.281,49.899,50.716,47.454
					c27.435-2.446,49.21-27.657,48.634-56.31c-0.03-1.497-0.155-2.962-0.304-4.416c13.762-3.923,27.278-8.938,40.432-15.004
					c0.625,1.277,1.274,2.548,2.017,3.78c14.215,23.592,44.765,29.387,68.238,12.942c23.472-16.445,30.976-48.901,16.762-72.494
					c-0.729-1.207-1.526-2.338-2.337-3.453c10.394-10.395,20.129-21.683,29.124-33.792
					C1202.841,1204.732,1204.02,1205.445,1205.266,1206.078z M905.503,1209.881c-87.307-44.328-119.175-156.899-71.176-251.436
					c47.998-94.536,157.684-135.238,244.992-90.909c87.307,44.328,119.174,156.899,71.176,251.435
					C1102.497,1213.508,992.811,1254.209,905.503,1209.881z"/>
			</g>
		</g>
		<g>
			
				<linearGradient id="SVGID_00000057866274659317590320000007571472867681863041_" gradientUnits="userSpaceOnUse" x1="2281.3264" y1="1237.5785" x2="3290.3682" y2="1237.5785">
				<stop  offset="0" style="stop-color:#444B8C"/>
				<stop  offset="0.9964" style="stop-color:#26264F"/>
			</linearGradient>
			<path style="fill:url(#SVGID_00000057866274659317590320000007571472867681863041_);" d="M2785.847,853.454
				c-109.889,0-211.563,26.755-294.397,72.143c-127.262,69.724-210.124,183.492-210.124,311.981
				c0,72.949,26.693,141.151,73.096,199.259l-48.672,129.386c-3.819,10.143,2.815,20.503,12.509,22.365l-0.014,0.018
				c0,0,0.156,0.017,0.375,0.04c0.741,0.125,1.497,0.197,2.27,0.22c4.998,0.445,15.96,1.195,22.91-0.022
				c-0.619-1.135-1.269-2.295-1.932-3.456c45.736-8.485,115.241-21.247,162.037-29.229c80.471,41.387,177.489,65.544,281.941,65.544
				c153.154,0,290.393-51.958,382.928-134.014c75.789-67.186,121.593-154.558,121.593-250.111
				C3290.368,1025.42,3064.473,853.454,2785.847,853.454z"/>
			<g>
				<g>
					
						<linearGradient id="SVGID_00000115473063899679015520000004279982959070459043_" gradientUnits="userSpaceOnUse" x1="2302.3838" y1="1237.5785" x2="3311.427" y2="1237.5785">
						<stop  offset="0.0036" style="stop-color:#E38DDD"/>
						<stop  offset="1" style="stop-color:#9571F6"/>
					</linearGradient>
					<path style="fill:url(#SVGID_00000115473063899679015520000004279982959070459043_);" d="M3311.427,1237.578
						c0,95.553-45.805,182.925-121.594,250.111c-92.535,82.056-229.773,134.014-382.928,134.014
						c-104.453,0-201.47-24.157-281.942-65.544c-53.212,9.077-135.807,24.336-179.402,32.458
						c-12.81,2.389-23.352-10.182-18.753-22.395l48.672-129.385c-46.403-58.108-73.097-126.309-73.097-199.258
						c0-128.489,82.863-242.257,210.125-311.982c82.833-45.388,184.508-72.143,294.396-72.143
						C3085.532,853.454,3311.427,1025.42,3311.427,1237.578z"/>
					
						<linearGradient id="SVGID_00000019663422604454719370000009370387607117590692_" gradientUnits="userSpaceOnUse" x1="2376.1392" y1="1017.7764" x2="3159.105" y2="2048.9258">
						<stop  offset="0.0036" style="stop-color:#E38DDD"/>
						<stop  offset="1" style="stop-color:#9571F6"/>
					</linearGradient>
					<path style="opacity:0.3;fill:url(#SVGID_00000019663422604454719370000009370387607117590692_);" d="M3189.833,1487.689
						c-92.535,82.056-229.773,134.014-382.928,134.014c-104.453,0-201.47-24.157-281.942-65.544
						c-53.212,9.077-135.807,24.336-179.402,32.458c-12.81,2.389-23.352-10.182-18.753-22.395l48.672-129.385
						c-46.403-58.108-73.097-126.309-73.097-199.258c0-128.489,82.863-242.257,210.125-311.982
						c66.559,9.048,124.341,32.19,159.427,78.623c77.188,102.272-9.885,245.721,70.708,318.312
						c79.996,71.993,207.889-31.204,324.196,17.677C3110.554,1358.573,3155.436,1399.631,3189.833,1487.689z"/>
				</g>
				<g>
					<g>
						<rect x="2573.588" y="1174.773" style="opacity:0.7;fill:#FFFFFF;" width="115.382" height="188.457"/>
						<rect x="2731.276" y="1082.468" style="opacity:0.7;fill:#FFFFFF;" width="115.382" height="280.762"/>
						<rect x="2888.965" y="1001.701" style="opacity:0.7;fill:#FFFFFF;" width="115.382" height="361.529"/>
					</g>
					<rect x="2550.512" y="1401.69" style="opacity:0.7;fill:#FFFFFF;" width="473.065" height="42.307"/>
				</g>
			</g>
		</g>
	</g>
</g>
</svg>
